<svg xmlns="http://www.w3.org/2000/svg" viewBox="0 0 64 64">
  <defs>
    <linearGradient id="berry" x1="0%" y1="0%" x2="100%" y2="100%">
      <stop offset="0%" stop-color="#e84393"/>
      <stop offset="100%" stop-color="#c0392b"/>
    </linearGradient>
    <linearGradient id="leaf" x1="0%" y1="0%" x2="100%" y2="100%">
      <stop offset="0%" stop-color="#00b894"/>
      <stop offset="100%" stop-color="#2d8a56"/>
    </linearGradient>
  </defs>
  <!-- Leaves -->
  <ellipse cx="26" cy="16" rx="7" ry="4" fill="url(#leaf)" transform="rotate(-30 26 16)"/>
  <ellipse cx="38" cy="16" rx="7" ry="4" fill="url(#leaf)" transform="rotate(30 38 16)"/>
  <ellipse cx="32" cy="14" rx="5" ry="4" fill="url(#leaf)" transform="rotate(0 32 14)"/>
  <!-- Stem -->
  <rect x="30.5" y="8" width="3" height="10" rx="1.5" fill="#2d8a56"/>
  <!-- Berry drupelets -->
  <circle cx="32" cy="28" r="5.5" fill="url(#berry)"/>
  <circle cx="23" cy="31" r="5.5" fill="url(#berry)"/>
  <circle cx="41" cy="31" r="5.5" fill="url(#berry)"/>
  <circle cx="26" cy="40" r="5.5" fill="url(#berry)"/>
  <circle cx="38" cy="40" r="5.5" fill="url(#berry)"/>
  <circle cx="32" cy="37" r="5.5" fill="url(#berry)"/>
  <circle cx="32" cy="48" r="5.5" fill="url(#berry)"/>
  <circle cx="25" cy="49" r="4.5" fill="url(#berry)"/>
  <circle cx="39" cy="49" r="4.5" fill="url(#berry)"/>
  <!-- Highlights on drupelets -->
  <circle cx="30" cy="26" r="1.5" fill="rgba(255,255,255,0.35)"/>
  <circle cx="21" cy="29" r="1.5" fill="rgba(255,255,255,0.35)"/>
  <circle cx="39" cy="29" r="1.5" fill="rgba(255,255,255,0.35)"/>
  <circle cx="24" cy="38" r="1.5" fill="rgba(255,255,255,0.35)"/>
  <circle cx="36" cy="38" r="1.5" fill="rgba(255,255,255,0.35)"/>
  <circle cx="30" cy="35" r="1.5" fill="rgba(255,255,255,0.35)"/>
  <circle cx="30" cy="46" r="1.5" fill="rgba(255,255,255,0.35)"/>
</svg>
